<svg xmlns="http://www.w3.org/2000/svg" xmlns:xlink="http://www.w3.org/1999/xlink" width="225" height="225" viewBox="0 0 225 225">
  <defs>
    <clipPath id="clip-path">
      <circle id="Ellipse_32" data-name="Ellipse 32" cx="112.5" cy="112.5" r="112.5" transform="translate(1501 3244)" fill="#fff" stroke="#707070" stroke-width="1"/>
    </clipPath>
  </defs>
  <g id="Mask_Group_7" data-name="Mask Group 7" transform="translate(-1501 -3244)" clip-path="url(#clip-path)">
    <g id="money" transform="translate(1501 3273.352)">
      <path id="Path_111" data-name="Path 111" d="M222.6,73.517a15.979,15.979,0,0,1,2.4,8.258c0,15.271-23.621,27.649-52.734,27.649s-52.734-12.378-52.734-27.649a15.979,15.979,0,0,1,2.4-8.258c6.7,11.224,26.7,19.391,50.336,19.391S215.9,84.76,222.6,73.517ZM103.07,114.7a16.029,16.029,0,0,1,2.4,8.258c0,15.271-23.621,27.649-52.734,27.649S0,138.226,0,122.955A15.979,15.979,0,0,1,2.4,114.7c6.7,11.224,26.715,19.391,50.336,19.391,23.639,0,43.634-8.148,50.336-19.391ZM60.388,74.268l-.11-6.848a5.753,5.753,0,0,0,3.79-1.41,4.674,4.674,0,0,0,1.63-3.186,4.623,4.623,0,0,0-1.41-3.772,7.97,7.97,0,0,0-5.109-1.941,7.234,7.234,0,0,0-5.035,1.044,4.874,4.874,0,0,0-1.959,3.68,7,7,0,0,0,2.142,5.493l-1.282,5.457-18.2-5.109L36.4,49.658l6.372.549L41.656,63.062l5.951,1.593A10.48,10.48,0,0,1,50.83,52.5a11.93,11.93,0,0,1,8.844-2.4,12.788,12.788,0,0,1,7.6,3.223,11.317,11.317,0,0,1,3.864,10.034,12.065,12.065,0,0,1-3.333,7.8,10.668,10.668,0,0,1-7.416,3.113ZM52.734,46.8c23.932,0,43.341,7.617,43.341,16.992,0,9.393-19.409,16.992-43.341,16.992S9.393,73.206,9.393,63.812,28.8,46.8,52.734,46.8Zm0-5.621c29.114,0,52.734,12.378,52.734,27.649S81.848,96.478,52.734,96.478C23.621,96.46,0,84.082,0,68.829,0,53.558,23.621,41.18,52.734,41.18ZM103.253,87.25a15.959,15.959,0,0,1,2.216,7.928c0,15.271-23.621,27.649-52.734,27.649S0,110.449,0,95.2a15.721,15.721,0,0,1,2.216-7.928c6.519,11.389,26.66,19.7,50.519,19.7,23.859-.018,44.019-8.313,50.519-19.72Zm88.055-70.862-.6,6.866L164.813,21a23.506,23.506,0,0,1,4.431,9.32l-6.226-.549a19.816,19.816,0,0,0-2.82-6.116,12.671,12.671,0,0,0-5.365-4.816l.494-5.566,35.98,3.113ZM172.266,5.64c23.932,0,43.341,7.617,43.341,16.992,0,9.393-19.409,16.992-43.341,16.992s-43.341-7.617-43.341-16.992c0-9.393,19.409-16.992,43.341-16.992Zm0-5.64C201.379,0,225,12.378,225,27.649S201.379,55.3,172.266,55.3,119.531,42.92,119.531,27.649,143.152,0,172.266,0Zm50.519,46.069A15.959,15.959,0,0,1,225,54c0,15.271-23.621,27.649-52.734,27.649S119.531,69.269,119.531,54a15.721,15.721,0,0,1,2.216-7.928c6.5,11.389,26.66,19.7,50.519,19.7,23.859.018,44.019-8.295,50.519-19.7Zm-.513,83.789A16.267,16.267,0,0,1,225,138.647c0,15.271-23.621,27.649-52.734,27.649s-52.734-12.378-52.734-27.649a16.114,16.114,0,0,1,2.728-8.789c7.013,10.95,26.752,18.86,50.006,18.86s43.011-7.892,50.006-18.86Zm.256-28.436A16,16,0,0,1,225,109.808c0,15.271-23.621,27.649-52.734,27.649s-52.734-12.378-52.734-27.649A16.116,16.116,0,0,1,122,101.422c6.775,11.169,26.715,19.244,50.262,19.244s43.469-8.075,50.262-19.244Z" stroke="#707070" stroke-width="1.831" fill-rule="evenodd"/>
    </g>
  </g>
</svg>
