<svg xmlns="http://www.w3.org/2000/svg" xmlns:xlink="http://www.w3.org/1999/xlink" width="260" height="154" viewBox="0 0 260 154">
  <defs>
    <clipPath id="clip-path">
      <rect id="Rectangle_9" data-name="Rectangle 9" width="260" height="154" transform="translate(819 1446)" fill="#3e3c3d"/>
    </clipPath>
  </defs>
  <g id="Mask_Group_2" data-name="Mask Group 2" transform="translate(-819 -1446)" clip-path="url(#clip-path)">
    <g id="outsourcing" transform="translate(879.617 1446.007)">
      <path id="Path_2" data-name="Path 2" d="M.063,81.546C.025,82.561,0,83.588,0,84.616A70.2,70.2,0,0,0,1.379,98.564a64.162,64.162,0,0,0,4,12.946.531.531,0,0,0,.075.175A71.5,71.5,0,0,0,11.868,123.5a66.126,66.126,0,0,0,8.409,10.239,63.843,63.843,0,0,0,10.239,8.4,72.6,72.6,0,0,0,11.818,6.416,66.689,66.689,0,0,0,13.108,4.073,71.446,71.446,0,0,0,27.871-.013,64.161,64.161,0,0,0,12.946-4,.531.531,0,0,0,.175-.075,73.039,73.039,0,0,0,11.818-6.416,66.775,66.775,0,0,0,10.239-8.4A64.6,64.6,0,0,0,126.9,123.49a73.57,73.57,0,0,0,6.416-11.818,66.689,66.689,0,0,0,4.073-13.108,69.924,69.924,0,0,0,1.379-13.948c0-1.028-.025-2.043-.063-3.058-46.08-.013-92.449-.013-138.642-.013Zm6.091,6.1H25.34q1.071,14.23,9.487,28.636h-20.3a64.421,64.421,0,0,1-3.5-7.03.334.334,0,0,1-.075-.125,60.476,60.476,0,0,1-3.622-11.78,61.438,61.438,0,0,1-1.178-9.7Zm12.319,34.714H38.736a143.048,143.048,0,0,0,22.9,25.089c-1.7-.2-3.371-.464-4.988-.79a59.374,59.374,0,0,1-11.905-3.709,66.924,66.924,0,0,1-10.865-5.878,62.762,62.762,0,0,1-15.4-14.688v-.025Zm58.65,25.089a140.581,140.581,0,0,0,22.9-25.089h20.264a59.929,59.929,0,0,1-6.078,7.03,60.621,60.621,0,0,1-9.324,7.657,66.166,66.166,0,0,1-10.865,5.878.334.334,0,0,1-.125.075,60.474,60.474,0,0,1-11.78,3.622c-1.667.338-3.334.589-4.988.79v.038Zm47.12-31.167H103.928q8.44-14.418,9.487-28.636H132.6a66.183,66.183,0,0,1-1.165,9.7,59.374,59.374,0,0,1-3.709,11.905,67.921,67.921,0,0,1-3.484,7.03ZM72.422,143.5V122.362H92.561A143.32,143.32,0,0,1,72.422,143.5Zm0-27.22V87.649h34.914q-1.184,14.117-10.527,28.636ZM66.344,87.649v28.636H41.957Q32.6,101.735,31.43,87.649Zm0,34.714V143.5a142.8,142.8,0,0,1-20.151-21.141Z" fill="#3e3c3d"/>
      <path id="Path_3" data-name="Path 3" d="M104.542,47.8l2.168-.05,1.8-.05c-2.118-6.479-1.4-12.432,3.659-17.495a11.277,11.277,0,0,0,6.065,6.767,31.9,31.9,0,0,1,4.549,4.186c.263-1.078-.727-2.369-1.93-3.709a5.918,5.918,0,0,1,2.87,2.795,7.632,7.632,0,0,1,.551,5.025,11.226,11.226,0,0,1-.639,2.419h3c3.158-6.78,1.153-16.83-5.314-21.079-1.993-1.3-3.409-1.253-5.74-1.253-2.669,0-4.035.075-6.316,1.592-3.359,2.231-5.426,6.078-6.3,11.429-.163,2.669-.288,7.281,1.579,9.424ZM1.2,71.821c.263-7.319,9.036-7.607,15.891-11.88l4.587,11.88ZM30.942,67.8h.9a1.482,1.482,0,0,0,1.479-1.479V63.926a1.482,1.482,0,0,0-1.479-1.479H26.493a1.482,1.482,0,0,0-1.479,1.479v2.394A1.482,1.482,0,0,0,26.493,67.8h.915l-.79,4.023h5.088L30.942,67.8ZM21.58,54.777c.175-1.391-3.935-5.965-4.687-8.5-1.6-2.557-2.181-5.2-.426-7.908.7-1.078.4-3.973.4-5.451,0-14.675,25.728-14.688,25.728,0,0,1.855-.426,4.273.576,5.74,1.679,2.444.815,5.364-.614,7.632-.9,2.669-5.2,6.98-4.913,8.5.263,7.519-16.116,7.269-16.066-.013ZM63.9,51.9l6.441,18.911,3.246-11.229L72,57.848A2.6,2.6,0,0,1,71.52,55.1c.865-1.692,2.632-1.391,4.286-1.391,1.742,0,3.9-.326,4.436,1.855a2.951,2.951,0,0,1-.551,2.281L78.1,59.577l3.246,11.229L87.173,51.9c7.582,6.83,22.858,2.832,24.7,19.913H37.157C39.1,53.825,56.256,58.788,63.9,51.9ZM58.65,26.856a8.425,8.425,0,0,0,1.679,4.073l.025.025h0l3.6,5.715a29.9,29.9,0,0,0,4.812,6.316,9.681,9.681,0,0,0,6.792,2.732,9.982,9.982,0,0,0,7.181-2.857,31.893,31.893,0,0,0,4.95-6.742l4.048-6.654c.827-1.88,1.078-3.02.8-3.572-.15-.313-.714-.426-1.617-.388A4.085,4.085,0,0,1,88.7,25.44l1.642-6.279C77.661,20.465,70.53,8.6,61.495,17.62l1.178,7.444c-1.466.3-4.123-.652-4.023,1.792Zm34.137-3.5a2.863,2.863,0,0,1,1.842,1.5c.614,1.216.363,3.033-.777,5.627h0a.672.672,0,0,0-.063.138l-4.1,6.742a33.789,33.789,0,0,1-5.351,7.243,12.139,12.139,0,0,1-8.8,3.484,11.977,11.977,0,0,1-8.384-3.359,32.1,32.1,0,0,1-5.213-6.792l-3.6-5.715a10.726,10.726,0,0,1-2.068-5.314,4.167,4.167,0,0,1,.376-1.955,3.781,3.781,0,0,1,1.3-1.516,5.631,5.631,0,0,1,.952-.476,90.151,90.151,0,0,1-.15-10.1,14.249,14.249,0,0,1,.439-2.343,13.827,13.827,0,0,1,6.078-7.745A16.827,16.827,0,0,1,68.55,1.191C75.443-1.291,84.591.075,89.491,5.376A13.866,13.866,0,0,1,93.013,14.2l-.226,9.161Zm20,36.756,1.617-5.627-.79-.865a1.312,1.312,0,0,1-.238-1.366c.426-.852,1.316-.689,2.143-.689.865,0,1.942-.175,2.218.927a1.529,1.529,0,0,1-.263,1.14l-.8.877,1.617,5.627-2.757,2.181-2.745-2.206Zm14.487-1.955a27.6,27.6,0,0,0-4.6-6.5,57.091,57.091,0,0,1,9.474,4.248,7.681,7.681,0,0,1,3.146,3.045c1.416,2.657,1.567,5.025,1.767,7.908l.5,4.963H117.638a33.336,33.336,0,0,0-1.968-6.755c3.446-3.4,7.118-6.153,11.6-6.905Zm-24.45-4.286c1.9-.84,3.872-1.554,5.589-2.218a32.175,32.175,0,0,0-2.694,3.321c-.915-.376-1.88-.752-2.895-1.1Z" fill="#3e3c3d" fill-rule="evenodd"/>
    </g>
  </g>
</svg>
