<svg xmlns="http://www.w3.org/2000/svg" xmlns:xlink="http://www.w3.org/1999/xlink" width="260" height="154" viewBox="0 0 260 154">
  <defs>
    <clipPath id="clip-path">
      <rect id="Rectangle_9" data-name="Rectangle 9" width="260" height="154" transform="translate(1390 1446)" fill="#363434"/>
    </clipPath>
  </defs>
  <g id="Mask_Group_3" data-name="Mask Group 3" transform="translate(-1390 -1446)" clip-path="url(#clip-path)">
    <g id="parcel-delivery" transform="translate(1468.963 1446.003)">
      <path id="Path_4" data-name="Path 4" d="M42.145,104.78c-.714.013-1.4.025-2.08.05l3.847,16.442a9.194,9.194,0,0,1-.088,4.562L38.661,147a9.229,9.229,0,0,1-17.908-4.474L25.44,123.3l-4.1-17.495c-9.4.125-13.3-2.193-15.49-15.4L1.216,62.61C.1,55.905,7.005,49.815,13.8,50.216l8.7.514c4.6.276,7.256,1.466,9.048,3.158a95.781,95.781,0,0,0,11.379,6.166,90.773,90.773,0,0,0,11.417,4.3l14.274-2.97A7.681,7.681,0,0,1,71.746,76.42l-15.878,3.3a7.584,7.584,0,0,1-3.923-.063A103.722,103.722,0,0,1,40.19,75.581a175.213,175.213,0,0,1,4.662,23.9c.526,4.925,1.579,5.226-2.707,5.3Zm1.679-98.2L94.391.013a2.261,2.261,0,0,1,2.431,1.993l5.238,50.329a2.056,2.056,0,0,1-1.867,2.293L50.654,59.139a2.306,2.306,0,0,1-2.431-1.993L41.957,8.873a2.058,2.058,0,0,1,1.867-2.293ZM16.956,11.843A16.956,16.956,0,1,1,0,28.8,16.96,16.96,0,0,1,16.956,11.843Z" fill="#363434" fill-rule="evenodd"/>
    </g>
  </g>
</svg>
