<svg xmlns="http://www.w3.org/2000/svg" xmlns:xlink="http://www.w3.org/1999/xlink" width="225" height="225" viewBox="0 0 225 225">
  <defs>
    <clipPath id="clip-path">
      <circle id="Ellipse_31" data-name="Ellipse 31" cx="112.5" cy="112.5" r="112.5" transform="translate(1007 2983)" fill="#fff" stroke="#707070" stroke-width="1"/>
    </clipPath>
  </defs>
  <g id="Mask_Group_6" data-name="Mask Group 6" transform="translate(-1007 -2983)" clip-path="url(#clip-path)">
    <g id="fast-delivery" transform="translate(1007 3033.887)">
      <path id="Path_109" data-name="Path 109" d="M169.751,30.266l-14.5-.092V10.565A10.6,10.6,0,0,0,144.666,0H48.246A10.628,10.628,0,0,0,37.663,10.583a2.866,2.866,0,0,0,5.731,0,4.876,4.876,0,0,1,4.852-4.852h96.42a4.876,4.876,0,0,1,4.852,4.852V100.3H133.351a2.875,2.875,0,1,0,0,5.749h19.024a2.868,2.868,0,0,0,2.875-2.875V99.917h11.572c1.318-29.827,44.145-33.946,48.5,0h9.411c2.417-29.076-11.938-40.392-33.782-42.937-1.575-6.83-4.559-13.165-7.946-19.427-4.046-7.452-4.98-7.159-13.256-7.287ZM54.106,56.6h3.534a22.086,22.086,0,0,1,4.6.311,3.029,3.029,0,0,1,1.721,1.025,2.7,2.7,0,0,1,.586,1.593,24.562,24.562,0,0,1-.256,3.461l-.751,6.408a15.986,15.986,0,0,1-.623,3.277,2.909,2.909,0,0,1-.952,1.3,3.871,3.871,0,0,1-1.5.659,12.769,12.769,0,0,1-2.563.183H51.927L54.106,56.6Zm2.948,15.051v.037a2.561,2.561,0,0,0,.824-.11,2.913,2.913,0,0,0,1.337-.311,6.754,6.754,0,0,0,.494-2.234l.842-7.086a11.334,11.334,0,0,0,.11-1.593.644.644,0,0,0-.293-.513,8.652,8.652,0,0,0-1.611-.146h-.11c-.439-.018-.861-.018-1.044-.018L56.175,71.683a8.7,8.7,0,0,0,.879-.037ZM67.673,56.6h7.892l-.439,3.625H71.976L71.555,63.7H74.5l-.421,3.442H71.134l-.476,4.01h3.479L73.7,74.777h-8.2L67.673,56.6Zm15.124,0L81.058,71.152h2.856l-.439,3.625h-7.6l2.179-18.2H82.8Zm9.594,0L90.213,74.8H85.47l2.179-18.2Zm13.97,0-4.577,18.2H94.625l-.568-18.2h5Q99,64.121,98.763,69.321c.677-3.515,1.3-6.628,1.9-9.338l.714-3.387Zm1.648,0H115.9l-.439,3.625h-3.149l-.421,3.479h2.948l-.4,3.442h-2.948l-.476,4.01h3.479l-.439,3.625h-8.221L108.01,56.6Zm10.4,0h3.351a25.839,25.839,0,0,1,4.5.256,2.636,2.636,0,0,1,1.776,1.318,5.6,5.6,0,0,1,.348,3.387,5.66,5.66,0,0,1-.879,2.856,3.138,3.138,0,0,1-2.179.879,3.113,3.113,0,0,1,1.776.934,2.391,2.391,0,0,1,.476,1.08,18.812,18.812,0,0,1-.2,2.692l-.568,4.8H122.42l.732-6.061a4.112,4.112,0,0,0-.018-1.813c-.128-.238-.513-.348-1.154-.348l-.989,8.2h-4.742L118.41,56.6Zm3.882,7.123v.018a3.689,3.689,0,0,0,.7-.055,4.084,4.084,0,0,0,1.245-.183c.439-.293.842-3.131.421-3.552a4.364,4.364,0,0,0-1.538-.238c-.073,0-.165-.018-.238-.018h0c-.22-.018-.421-.018-.549-.018l-.476,4.046a1.737,1.737,0,0,0,.439,0ZM141.718,56.6,136.885,68.2,136.1,74.8h-4.376l.787-6.592L130.568,56.6h4.339c.238,3.552.348,5.951.293,7.177.513-1.941,1.227-4.339,2.179-7.177ZM11.828,45.28a2.885,2.885,0,1,1,0-5.731H43.1a2.885,2.885,0,1,1,0,5.731ZM2.966,60.789a2.885,2.885,0,1,1,0-5.768H38.8c2.38,0,4.285,1.3,4.285,2.875,0,1.593-1.923,2.875-4.285,2.875H2.966ZM74.32,100.283a2.866,2.866,0,1,1,0,5.731H48.246a10.433,10.433,0,0,1-7.47-3.259,11.085,11.085,0,0,1-3.113-7.6V74.1a2.866,2.866,0,1,1,5.731,0V95.156A5.313,5.313,0,0,0,44.877,98.8a4.622,4.622,0,0,0,3.332,1.483Zm29.131-15.875a19.408,19.408,0,1,0,19.408,19.408,19.418,19.418,0,0,0-19.408-19.408Zm0,11.956a7.47,7.47,0,1,0,7.47,7.47,7.466,7.466,0,0,0-7.47-7.47Zm87.558-14.813a19.408,19.408,0,1,0,19.408,19.408,19.418,19.418,0,0,0-19.408-19.408Zm-7.452,19.427a7.47,7.47,0,1,0,7.47-7.47,7.466,7.466,0,0,0-7.47,7.47ZM171.142,38.561,162.39,38.4V57h18.53a71.032,71.032,0,0,0-9.777-18.438Z" transform="translate(0)" fill="#262626" fill-rule="evenodd"/>
      <path id="Path_110" data-name="Path 110" d="M29.776,39.572a3.06,3.06,0,0,1-3.223-2.856,3.062,3.062,0,0,1,3.223-2.875H56.93a3.062,3.062,0,0,1,3.223,2.875,3.048,3.048,0,0,1-3.223,2.856ZM71.138,27.853H84.761l-.732,6.189H78.462l-.714,5.914h4.925l-.7,5.877H77.052L75.5,58.815H67.421l3.717-30.962Zm29.735,0,.9,30.98H93.549l.22-5.566H90.858l-1.1,5.566H81.428l7.8-30.98ZM94.209,47.774c.037-3.515.146-7.855.348-13.055-1.5,5.951-2.527,10.29-3.076,13.055ZM123.8,37.246h-7.47l.275-2.289a4.547,4.547,0,0,0-.037-2.051.915.915,0,0,0-.9-.439,1.424,1.424,0,0,0-1.172.586,3.683,3.683,0,0,0-.586,1.794,4.725,4.725,0,0,0,.146,2.325,5.319,5.319,0,0,0,2.051,1.886c3.314,2.142,5.365,3.882,6.115,5.255q1.154,2.06.6,6.592a12.493,12.493,0,0,1-1.355,4.889,7.12,7.12,0,0,1-3.3,2.618,12.53,12.53,0,0,1-5.292,1.062,10.574,10.574,0,0,1-5.365-1.227,5.1,5.1,0,0,1-2.618-3.113,15.955,15.955,0,0,1-.055-5.383l.238-2.032h7.47l-.439,3.79a4.807,4.807,0,0,0,.037,2.234,1.064,1.064,0,0,0,1.062.494,1.454,1.454,0,0,0,1.263-.641,4.058,4.058,0,0,0,.623-1.868c.22-1.813.11-3.021-.311-3.57a20.08,20.08,0,0,0-3.424-2.82,31.146,31.146,0,0,1-3.625-2.893,5.847,5.847,0,0,1-1.318-2.49,10.609,10.609,0,0,1-.146-4.046,11.922,11.922,0,0,1,1.538-5.2,7.087,7.087,0,0,1,3.241-2.563,12.423,12.423,0,0,1,5-.934,12.158,12.158,0,0,1,5.218,1.007,4.715,4.715,0,0,1,2.618,2.563A13.208,13.208,0,0,1,123.98,36l-.183,1.245Zm21.587-9.393-.732,6.189H139.91l-2.966,24.792h-8.075l2.966-24.792h-4.779l.732-6.189Z" transform="translate(-9.58 -9.818)" fill="#c84436" fill-rule="evenodd"/>
    </g>
  </g>
</svg>
