<svg xmlns="http://www.w3.org/2000/svg" xmlns:xlink="http://www.w3.org/1999/xlink" width="260" height="154" viewBox="0 0 260 154">
  <defs>
    <clipPath id="clip-path">
      <rect id="Rectangle_9" data-name="Rectangle 9" width="260" height="154" transform="translate(266 1446)" fill="#3e3c3d"/>
    </clipPath>
  </defs>
  <g id="Mask_Group_1" data-name="Mask Group 1" transform="translate(-266 -1446)" clip-path="url(#clip-path)">
    <path id="lawyer" d="M104.187,102.52c9.727,5.152,26.536,5.014,34.834,9.614a24.805,24.805,0,0,1,7.847,6.631c5.014,6.556,6.029,26.473,7.157,35.16H107.647a14.278,14.278,0,0,0-.589-2.256L100.9,133.681a9.715,9.715,0,0,0,5.014-2.319c3.221-2.733,4.262-6.468,3.184-11.181v-.276l-3.572-13.362-.075-.3a18.45,18.45,0,0,0-1.253-3.685Zm8.874-53.36a5.478,5.478,0,0,1,3.986,4.111c.6,2.369,0,5.7-2.068,10.253h0a2.332,2.332,0,0,0-.125.251l-8.6,14.114c-3.322,5.44-6.693,10.88-11.181,15.042a25.47,25.47,0,0,1-18.238,7.245,24.819,24.819,0,0,1-17.348-6.919C55.115,89.284,51.78,84.145,48.6,79.118L41.076,67.173c-2.758-4.1-4.187-7.847-4.287-10.918a8.774,8.774,0,0,1,.74-3.911,7.12,7.12,0,0,1,2.582-3,8.636,8.636,0,0,1,1.83-.928,190.584,190.584,0,0,1-.364-21.484,29.281,29.281,0,0,1,.928-4.876A28.717,28.717,0,0,1,55.252,5.879a35.172,35.172,0,0,1,6.869-3.372c14.5-5.214,33.731-2.357,44.021,8.774,4.187,4.512,6.819,10.5,7.4,18.426Zm-65.18,4.362a7.258,7.258,0,0,0-3.61.915A2.858,2.858,0,0,0,43.244,55.6a4.074,4.074,0,0,0-.351,1.868c.063,2.118,1.253,4.876,3.409,8.047h0l7.17,11.056c2.87,4.437,5.891,8.95,9.627,12.271A19.968,19.968,0,0,0,76.887,94.21a20.519,20.519,0,0,0,14.528-5.6c3.861-3.51,6.919-8.31,9.927-13.111l8.022-12.823c1.492-3.334,2.043-5.553,1.7-6.869-.213-.777-1.091-1.153-2.595-1.253h-2.118a2.507,2.507,0,0,1-.614,0,11.093,11.093,0,0,1-2.219-.125l2.77-9.3C91.5,44.9,81.475,42.4,69.479,35.009c-10.028-6.192-16.934-6.969-20.732,7.107L50.314,53.61a12.221,12.221,0,0,1-2.507-.088Zm5.641,68.251,3.547-13.525c.777-2.946,2.118-4.538,4.412-3.848l13.989,6.518c1.8.84,1.253.777,3.121-.088l12.911-6.1c2.77-1.416,4.525-.125,5.4,3.522l3.673,13.913c.564,2.507-.351,3.284-2.858,2.369L89.7,120.608c-1.655-.79-2.507,0-1.843,2.131l10.617,31.023H83.53a6.9,6.9,0,0,1-.2-.727l-6.267-28.128-6.455,28.215a2.434,2.434,0,0,1-.175.639H55.24l11.005-31.336c.6-2.118-.326-2.507-1.88-1.78l-8.335,3.836c-2.357,1.253-3.046.163-2.507-2.707Zm-7.4,32.151H0c1.128-8.686,2.206-28.6,7.157-35.1a24.48,24.48,0,0,1,7.884-6.693c9.188-5.127,24.956-4.262,34.733-9.514A18.276,18.276,0,0,0,48.521,106h0l-3.4,13.186c-.088.3-.175.627-.238.953-.765,4.1-.163,7.521,2.081,10.216a9.564,9.564,0,0,0,5.916,3.622l-6.242,17.686a6.97,6.97,0,0,0-.313,1.141c-.088.4-.15.79-.2,1.178Z" transform="translate(318.988 1446.013)" fill="#3e3c3d" fill-rule="evenodd"/>
  </g>
</svg>
