<svg xmlns="http://www.w3.org/2000/svg" xmlns:xlink="http://www.w3.org/1999/xlink" width="225" height="225" viewBox="0 0 225 225">
  <defs>
    <clipPath id="clip-path">
      <circle id="Ellipse_29" data-name="Ellipse 29" cx="112.5" cy="112.5" r="112.5" transform="translate(144 2983)" fill="#fff" stroke="#707070" stroke-width="1"/>
    </clipPath>
  </defs>
  <g id="Mask_Group_4" data-name="Mask Group 4" transform="translate(-144 -2983)" clip-path="url(#clip-path)">
    <g id="social-distancing" transform="translate(144 3054.415)">
      <path id="Path_104" data-name="Path 104" d="M161.947,26.594a4.067,4.067,0,0,0-1.937.548,1.669,1.669,0,0,0-.621.713,2.5,2.5,0,0,0-.2,1.151,10.321,10.321,0,0,0,2.046,4.988l.018.037,4.312,6.852a37.543,37.543,0,0,0,5.792,7.62,11.8,11.8,0,0,0,8.259,3.326,12.13,12.13,0,0,0,8.734-3.472,38.286,38.286,0,0,0,5.957-8.131l4.86-8c1-2.3,1.316-3.728.968-4.44-.256-.53-1.206-.676-2.759-.53-1.5.128-1.772-.932-1.151-1.9l1.1-2.375c-8.88-.11-14.965-1.663-22.146-6.249-2.357-1.517-3.07-3.234-5.445-3.07a8.021,8.021,0,0,0-4.477,2.43,11.507,11.507,0,0,0-2.576,5.061l1.1,5.518a3.65,3.65,0,0,1-1.827-.073ZM139.07,43.039l.219.164h0l.018.018.018.018.018.018.037.018.018.018.018.018.018.018.018.018.018.018h0a1.942,1.942,0,0,0,.164.2l.018.018.018.037.11.164h0v.018l.018.055v.018l.018.055h0l.018.055h0l.018.055h0l.018.055h0l.018.055h0l.018.055h0l.018.055h0l.018.055h0l.037.128h0L140,44.5l.018.128h0v.2h0v.055h0v.767h0L140,45.78l-.018.055h0l-.037.128h0l-.018.055h0l-.018.055h0l-.018.055h0l.073.11h0l-.018.055h0l-.018.055h0l-.018.055h0l-.018.055v.018l-.018.055v.018h0l-.11.164-.018.037-.018.018-.164.219h0l-.018.018-.018.037-.018.018-.018.018-.018.018-.037.018-.018.018-.018.018-.018.018h0l-.219.164-.018.018h0l-12.206,8.862a2.67,2.67,0,1,1-3.125-4.331l5.573-4.038H93.426L99,51.882a2.67,2.67,0,1,1-3.125,4.331L83.76,47.406a2.675,2.675,0,0,1,0-4.495L95.875,34.1A2.67,2.67,0,1,1,99,38.434l-5.573,4.056h35.85L123.7,38.434a2.67,2.67,0,1,1,3.125-4.331l12.206,8.862h0l.037.073Zm26.6,12.37c5.9,16.262,22.712,15.568,27.9,0,5.043,4.532,16.317,5.445,21.872,8.533,8.3,4.623,8.095,9.684,9.1,17.779H136.531c3.508-28.194,15.6-14.124,29.144-26.312Zm34.644-30.387a3.264,3.264,0,0,1,2.047,1.681c.694,1.407.42,3.527-.932,6.578h0a.546.546,0,0,1-.073.146l-4.915,8.095a40.125,40.125,0,0,1-6.4,8.661,14.605,14.605,0,0,1-10.433,4.148,14.173,14.173,0,0,1-9.922-3.983,38.09,38.09,0,0,1-6.213-8.113l-4.312-6.852a12.675,12.675,0,0,1-2.448-6.286,4.99,4.99,0,0,1,.42-2.247,4.365,4.365,0,0,1,1.48-1.736,4.421,4.421,0,0,1,1.06-.53,60.2,60.2,0,0,1-.2-9.118,16.732,16.732,0,0,1,.53-2.8A16.512,16.512,0,0,1,167.3,3.388a20.088,20.088,0,0,1,3.929-1.919c8.277-3,19.259-1.352,25.143,5.007a16.78,16.78,0,0,1,4.221,10.561l-.274,7.985Zm-174.9,1.571a4.067,4.067,0,0,0-1.937.548,1.669,1.669,0,0,0-.621.713,2.5,2.5,0,0,0-.2,1.151A10.322,10.322,0,0,0,24.7,33.994l.018.037,4.312,6.852a37.542,37.542,0,0,0,5.792,7.62,11.8,11.8,0,0,0,8.259,3.326,12.13,12.13,0,0,0,8.734-3.472,38.285,38.285,0,0,0,5.957-8.131l4.86-8c1-2.3,1.316-3.728.968-4.44-.256-.53-1.206-.676-2.759-.53-1.571.146-1.754-.968-1.151-1.9l1.1-2.375c-8.88-.11-14.965-1.663-22.146-6.249-2.357-1.5-3.07-3.234-5.445-3.07a8.022,8.022,0,0,0-4.477,2.43,11.305,11.305,0,0,0-2.558,5.061l1.1,5.518a3.713,3.713,0,0,1-1.846-.073Zm3.728,28.815c4.568,12.206,23.608,12.791,27.9,0,5.043,4.532,16.317,5.445,21.872,8.551,8.478,4.733,8.022,9.191,9.1,17.779H0C1.078,73.17.621,68.693,9.1,63.96c5.555-3.106,15-4.02,20.045-8.551ZM63.789,25.022A3.264,3.264,0,0,1,65.835,26.7c.694,1.407.4,3.527-.932,6.578h0a.547.547,0,0,1-.073.146l-4.915,8.095a40.125,40.125,0,0,1-6.4,8.661,14.517,14.517,0,0,1-10.433,4.13,14.24,14.24,0,0,1-9.922-3.965,38.09,38.09,0,0,1-6.213-8.113l-4.312-6.852A12.675,12.675,0,0,1,20.191,29.1a4.943,4.943,0,0,1,.42-2.247,4.365,4.365,0,0,1,1.48-1.736,4.421,4.421,0,0,1,1.06-.53,60.2,60.2,0,0,1-.2-9.118,16.733,16.733,0,0,1,.53-2.8,16.452,16.452,0,0,1,7.291-9.282A20.089,20.089,0,0,1,34.7,1.469c8.277-3,19.259-1.352,25.143,5.007a16.79,16.79,0,0,1,4.221,10.58l-.274,7.967Z" transform="translate(0 -0.021)"/>
    </g>
  </g>
</svg>
