<svg xmlns="http://www.w3.org/2000/svg" xmlns:xlink="http://www.w3.org/1999/xlink" width="225" height="225" viewBox="0 0 225 225">
  <defs>
    <clipPath id="clip-path">
      <circle id="Ellipse_30" data-name="Ellipse 30" cx="112.5" cy="112.5" r="112.5" transform="translate(642 3244)" fill="#fff" stroke="#707070" stroke-width="1"/>
    </clipPath>
  </defs>
  <g id="Mask_Group_8" data-name="Mask Group 8" transform="translate(-642 -3244)" clip-path="url(#clip-path)">
    <g id="change-password" transform="translate(642 3247.862)">
      <path id="Path_114" data-name="Path 114" d="M78.921,99.542H86.5v-16a31.3,31.3,0,0,1,9.218-22.165V61.37a31.263,31.263,0,0,1,44.334,0l.007.007a31.3,31.3,0,0,1,9.218,22.163v16l6.037,0a2.452,2.452,0,0,1,2.444,2.444v51.641a2.454,2.454,0,0,1-2.446,2.444H78.921a2.455,2.455,0,0,1-2.446-2.444V101.987a2.453,2.453,0,0,1,2.446-2.444ZM30.546,40.657a96.582,96.582,0,0,0-9.267,13.654,109.714,109.714,0,0,0-13.715,63.25,105.811,105.811,0,0,0,24.49,59.09,120.6,120.6,0,0,0,16.721,16.421,106,106,0,0,0,136.506-1.4,120.325,120.325,0,0,0,16.324-16.718,105.563,105.563,0,0,0,22.1-49.691,107.027,107.027,0,0,0-5.62-54.3C211.7,53.833,201.95,38.581,189.2,26.64A97.727,97.727,0,0,0,145.013,2.715,96.254,96.254,0,0,0,128.55.2a98.6,98.6,0,0,0-17.214.41A6.7,6.7,0,1,0,112.8,13.936a85.254,85.254,0,0,1,14.907-.357,82.529,82.529,0,0,1,14.156,2.15A84.353,84.353,0,0,1,180.023,36.4,102.5,102.5,0,0,1,205.55,75.632a93.7,93.7,0,0,1,4.937,47.533,92.184,92.184,0,0,1-19.323,43.394,106.935,106.935,0,0,1-14.487,14.881,92.611,92.611,0,0,1-119.506,1.2,107.271,107.271,0,0,1-14.885-14.586,92.418,92.418,0,0,1-21.341-51.64A96.321,96.321,0,0,1,32.977,60.872a86.536,86.536,0,0,1,9.179-13.259l.976,26.909A6.693,6.693,0,0,0,56.51,74.05L54.954,31.168a6.693,6.693,0,0,0-6.925-6.454c-.231.009-.458.029-.681.059v-.005L5.781,30.606A6.7,6.7,0,0,0,7.619,43.88l22.927-3.223ZM98.692,99.542h38.385V83.366a19.149,19.149,0,0,0-5.634-13.555l0,0A19.188,19.188,0,0,0,98.694,83.366V99.542ZM118.04,127.8l3.875,17.879-10.618.044L114.41,127.6a7.2,7.2,0,1,1,3.629.2Z" fill-rule="evenodd"/>
    </g>
  </g>
</svg>
