<svg xmlns="http://www.w3.org/2000/svg" xmlns:xlink="http://www.w3.org/1999/xlink" width="282" height="264" viewBox="0 0 282 264">
  <defs>
    <clipPath id="clip-path">
      <rect width="282" height="264" fill="none"/>
    </clipPath>
  </defs>
  <g id="Repeat_Grid_1" data-name="Repeat Grid 1" clip-path="url(#clip-path)">
    <g transform="translate(-1284 -2992)">
      <circle id="Ellipse_1" data-name="Ellipse 1" cx="10" cy="10" r="10" transform="translate(1284 2992)" fill="#010066"/>
    </g>
    <g transform="translate(-1252 -2992)">
      <circle id="Ellipse_1-2" data-name="Ellipse 1" cx="10" cy="10" r="10" transform="translate(1284 2992)" fill="#010066"/>
    </g>
    <g transform="translate(-1220 -2992)">
      <circle id="Ellipse_1-3" data-name="Ellipse 1" cx="10" cy="10" r="10" transform="translate(1284 2992)" fill="#010066"/>
    </g>
    <g transform="translate(-1188 -2992)">
      <circle id="Ellipse_1-4" data-name="Ellipse 1" cx="10" cy="10" r="10" transform="translate(1284 2992)" fill="#010066"/>
    </g>
    <g transform="translate(-1156 -2992)">
      <circle id="Ellipse_1-5" data-name="Ellipse 1" cx="10" cy="10" r="10" transform="translate(1284 2992)" fill="#010066"/>
    </g>
    <g transform="translate(-1124 -2992)">
      <circle id="Ellipse_1-6" data-name="Ellipse 1" cx="10" cy="10" r="10" transform="translate(1284 2992)" fill="#010066"/>
    </g>
    <g transform="translate(-1092 -2992)">
      <circle id="Ellipse_1-7" data-name="Ellipse 1" cx="10" cy="10" r="10" transform="translate(1284 2992)" fill="#010066"/>
    </g>
    <g transform="translate(-1060 -2992)">
      <circle id="Ellipse_1-8" data-name="Ellipse 1" cx="10" cy="10" r="10" transform="translate(1284 2992)" fill="#010066"/>
    </g>
    <g transform="translate(-1028 -2992)">
      <circle id="Ellipse_1-9" data-name="Ellipse 1" cx="10" cy="10" r="10" transform="translate(1284 2992)" fill="#010066"/>
    </g>
    <g transform="translate(-1284 -2952)">
      <circle id="Ellipse_1-10" data-name="Ellipse 1" cx="10" cy="10" r="10" transform="translate(1284 2992)" fill="#010066"/>
    </g>
    <g transform="translate(-1252 -2952)">
      <circle id="Ellipse_1-11" data-name="Ellipse 1" cx="10" cy="10" r="10" transform="translate(1284 2992)" fill="#010066"/>
    </g>
    <g transform="translate(-1220 -2952)">
      <circle id="Ellipse_1-12" data-name="Ellipse 1" cx="10" cy="10" r="10" transform="translate(1284 2992)" fill="#010066"/>
    </g>
    <g transform="translate(-1188 -2952)">
      <circle id="Ellipse_1-13" data-name="Ellipse 1" cx="10" cy="10" r="10" transform="translate(1284 2992)" fill="#010066"/>
    </g>
    <g transform="translate(-1156 -2952)">
      <circle id="Ellipse_1-14" data-name="Ellipse 1" cx="10" cy="10" r="10" transform="translate(1284 2992)" fill="#010066"/>
    </g>
    <g transform="translate(-1124 -2952)">
      <circle id="Ellipse_1-15" data-name="Ellipse 1" cx="10" cy="10" r="10" transform="translate(1284 2992)" fill="#010066"/>
    </g>
    <g transform="translate(-1092 -2952)">
      <circle id="Ellipse_1-16" data-name="Ellipse 1" cx="10" cy="10" r="10" transform="translate(1284 2992)" fill="#010066"/>
    </g>
    <g transform="translate(-1060 -2952)">
      <circle id="Ellipse_1-17" data-name="Ellipse 1" cx="10" cy="10" r="10" transform="translate(1284 2992)" fill="#010066"/>
    </g>
    <g transform="translate(-1028 -2952)">
      <circle id="Ellipse_1-18" data-name="Ellipse 1" cx="10" cy="10" r="10" transform="translate(1284 2992)" fill="#010066"/>
    </g>
    <g transform="translate(-1284 -2912)">
      <circle id="Ellipse_1-19" data-name="Ellipse 1" cx="10" cy="10" r="10" transform="translate(1284 2992)" fill="#010066"/>
    </g>
    <g transform="translate(-1252 -2912)">
      <circle id="Ellipse_1-20" data-name="Ellipse 1" cx="10" cy="10" r="10" transform="translate(1284 2992)" fill="#010066"/>
    </g>
    <g transform="translate(-1220 -2912)">
      <circle id="Ellipse_1-21" data-name="Ellipse 1" cx="10" cy="10" r="10" transform="translate(1284 2992)" fill="#010066"/>
    </g>
    <g transform="translate(-1188 -2912)">
      <circle id="Ellipse_1-22" data-name="Ellipse 1" cx="10" cy="10" r="10" transform="translate(1284 2992)" fill="#010066"/>
    </g>
    <g transform="translate(-1156 -2912)">
      <circle id="Ellipse_1-23" data-name="Ellipse 1" cx="10" cy="10" r="10" transform="translate(1284 2992)" fill="#010066"/>
    </g>
    <g transform="translate(-1124 -2912)">
      <circle id="Ellipse_1-24" data-name="Ellipse 1" cx="10" cy="10" r="10" transform="translate(1284 2992)" fill="#010066"/>
    </g>
    <g transform="translate(-1092 -2912)">
      <circle id="Ellipse_1-25" data-name="Ellipse 1" cx="10" cy="10" r="10" transform="translate(1284 2992)" fill="#010066"/>
    </g>
    <g transform="translate(-1060 -2912)">
      <circle id="Ellipse_1-26" data-name="Ellipse 1" cx="10" cy="10" r="10" transform="translate(1284 2992)" fill="#010066"/>
    </g>
    <g transform="translate(-1028 -2912)">
      <circle id="Ellipse_1-27" data-name="Ellipse 1" cx="10" cy="10" r="10" transform="translate(1284 2992)" fill="#010066"/>
    </g>
    <g transform="translate(-1284 -2872)">
      <circle id="Ellipse_1-28" data-name="Ellipse 1" cx="10" cy="10" r="10" transform="translate(1284 2992)" fill="#010066"/>
    </g>
    <g transform="translate(-1252 -2872)">
      <circle id="Ellipse_1-29" data-name="Ellipse 1" cx="10" cy="10" r="10" transform="translate(1284 2992)" fill="#010066"/>
    </g>
    <g transform="translate(-1220 -2872)">
      <circle id="Ellipse_1-30" data-name="Ellipse 1" cx="10" cy="10" r="10" transform="translate(1284 2992)" fill="#010066"/>
    </g>
    <g transform="translate(-1188 -2872)">
      <circle id="Ellipse_1-31" data-name="Ellipse 1" cx="10" cy="10" r="10" transform="translate(1284 2992)" fill="#010066"/>
    </g>
    <g transform="translate(-1156 -2872)">
      <circle id="Ellipse_1-32" data-name="Ellipse 1" cx="10" cy="10" r="10" transform="translate(1284 2992)" fill="#010066"/>
    </g>
    <g transform="translate(-1124 -2872)">
      <circle id="Ellipse_1-33" data-name="Ellipse 1" cx="10" cy="10" r="10" transform="translate(1284 2992)" fill="#010066"/>
    </g>
    <g transform="translate(-1092 -2872)">
      <circle id="Ellipse_1-34" data-name="Ellipse 1" cx="10" cy="10" r="10" transform="translate(1284 2992)" fill="#010066"/>
    </g>
    <g transform="translate(-1060 -2872)">
      <circle id="Ellipse_1-35" data-name="Ellipse 1" cx="10" cy="10" r="10" transform="translate(1284 2992)" fill="#010066"/>
    </g>
    <g transform="translate(-1028 -2872)">
      <circle id="Ellipse_1-36" data-name="Ellipse 1" cx="10" cy="10" r="10" transform="translate(1284 2992)" fill="#010066"/>
    </g>
    <g transform="translate(-1284 -2832)">
      <circle id="Ellipse_1-37" data-name="Ellipse 1" cx="10" cy="10" r="10" transform="translate(1284 2992)" fill="#010066"/>
    </g>
    <g transform="translate(-1252 -2832)">
      <circle id="Ellipse_1-38" data-name="Ellipse 1" cx="10" cy="10" r="10" transform="translate(1284 2992)" fill="#010066"/>
    </g>
    <g transform="translate(-1220 -2832)">
      <circle id="Ellipse_1-39" data-name="Ellipse 1" cx="10" cy="10" r="10" transform="translate(1284 2992)" fill="#010066"/>
    </g>
    <g transform="translate(-1188 -2832)">
      <circle id="Ellipse_1-40" data-name="Ellipse 1" cx="10" cy="10" r="10" transform="translate(1284 2992)" fill="#010066"/>
    </g>
    <g transform="translate(-1156 -2832)">
      <circle id="Ellipse_1-41" data-name="Ellipse 1" cx="10" cy="10" r="10" transform="translate(1284 2992)" fill="#010066"/>
    </g>
    <g transform="translate(-1124 -2832)">
      <circle id="Ellipse_1-42" data-name="Ellipse 1" cx="10" cy="10" r="10" transform="translate(1284 2992)" fill="#010066"/>
    </g>
    <g transform="translate(-1092 -2832)">
      <circle id="Ellipse_1-43" data-name="Ellipse 1" cx="10" cy="10" r="10" transform="translate(1284 2992)" fill="#010066"/>
    </g>
    <g transform="translate(-1060 -2832)">
      <circle id="Ellipse_1-44" data-name="Ellipse 1" cx="10" cy="10" r="10" transform="translate(1284 2992)" fill="#010066"/>
    </g>
    <g transform="translate(-1028 -2832)">
      <circle id="Ellipse_1-45" data-name="Ellipse 1" cx="10" cy="10" r="10" transform="translate(1284 2992)" fill="#010066"/>
    </g>
    <g transform="translate(-1284 -2792)">
      <circle id="Ellipse_1-46" data-name="Ellipse 1" cx="10" cy="10" r="10" transform="translate(1284 2992)" fill="#010066"/>
    </g>
    <g transform="translate(-1252 -2792)">
      <circle id="Ellipse_1-47" data-name="Ellipse 1" cx="10" cy="10" r="10" transform="translate(1284 2992)" fill="#010066"/>
    </g>
    <g transform="translate(-1220 -2792)">
      <circle id="Ellipse_1-48" data-name="Ellipse 1" cx="10" cy="10" r="10" transform="translate(1284 2992)" fill="#010066"/>
    </g>
    <g transform="translate(-1188 -2792)">
      <circle id="Ellipse_1-49" data-name="Ellipse 1" cx="10" cy="10" r="10" transform="translate(1284 2992)" fill="#010066"/>
    </g>
    <g transform="translate(-1156 -2792)">
      <circle id="Ellipse_1-50" data-name="Ellipse 1" cx="10" cy="10" r="10" transform="translate(1284 2992)" fill="#010066"/>
    </g>
    <g transform="translate(-1124 -2792)">
      <circle id="Ellipse_1-51" data-name="Ellipse 1" cx="10" cy="10" r="10" transform="translate(1284 2992)" fill="#010066"/>
    </g>
    <g transform="translate(-1092 -2792)">
      <circle id="Ellipse_1-52" data-name="Ellipse 1" cx="10" cy="10" r="10" transform="translate(1284 2992)" fill="#010066"/>
    </g>
    <g transform="translate(-1060 -2792)">
      <circle id="Ellipse_1-53" data-name="Ellipse 1" cx="10" cy="10" r="10" transform="translate(1284 2992)" fill="#010066"/>
    </g>
    <g transform="translate(-1028 -2792)">
      <circle id="Ellipse_1-54" data-name="Ellipse 1" cx="10" cy="10" r="10" transform="translate(1284 2992)" fill="#010066"/>
    </g>
    <g transform="translate(-1284 -2752)">
      <circle id="Ellipse_1-55" data-name="Ellipse 1" cx="10" cy="10" r="10" transform="translate(1284 2992)" fill="#010066"/>
    </g>
    <g transform="translate(-1252 -2752)">
      <circle id="Ellipse_1-56" data-name="Ellipse 1" cx="10" cy="10" r="10" transform="translate(1284 2992)" fill="#010066"/>
    </g>
    <g transform="translate(-1220 -2752)">
      <circle id="Ellipse_1-57" data-name="Ellipse 1" cx="10" cy="10" r="10" transform="translate(1284 2992)" fill="#010066"/>
    </g>
    <g transform="translate(-1188 -2752)">
      <circle id="Ellipse_1-58" data-name="Ellipse 1" cx="10" cy="10" r="10" transform="translate(1284 2992)" fill="#010066"/>
    </g>
    <g transform="translate(-1156 -2752)">
      <circle id="Ellipse_1-59" data-name="Ellipse 1" cx="10" cy="10" r="10" transform="translate(1284 2992)" fill="#010066"/>
    </g>
    <g transform="translate(-1124 -2752)">
      <circle id="Ellipse_1-60" data-name="Ellipse 1" cx="10" cy="10" r="10" transform="translate(1284 2992)" fill="#010066"/>
    </g>
    <g transform="translate(-1092 -2752)">
      <circle id="Ellipse_1-61" data-name="Ellipse 1" cx="10" cy="10" r="10" transform="translate(1284 2992)" fill="#010066"/>
    </g>
    <g transform="translate(-1060 -2752)">
      <circle id="Ellipse_1-62" data-name="Ellipse 1" cx="10" cy="10" r="10" transform="translate(1284 2992)" fill="#010066"/>
    </g>
    <g transform="translate(-1028 -2752)">
      <circle id="Ellipse_1-63" data-name="Ellipse 1" cx="10" cy="10" r="10" transform="translate(1284 2992)" fill="#010066"/>
    </g>
  </g>
</svg>
